<svg width="105" height="95" viewBox="0 0 105 95" fill="none" xmlns="http://www.w3.org/2000/svg">
<g clip-path="url(#clip0_4022_137)">
<path fill-rule="evenodd" clip-rule="evenodd" d="M-1579 10C-1579 4.47715 -1574.52 0 -1569 0H331C336.523 0 341 4.47716 341 10V66.4667C341 69.0679 338.601 71 336 71V71H77.519C72.4555 71 68.2962 67.1673 66.8122 62.3261C60.5424 41.8723 41.508 27 19 27H-1008C-1030.51 27 -1049.54 41.8724 -1055.81 62.3261C-1057.3 67.1673 -1061.46 71 -1066.52 71H-1534C-1544.13 71 -1552.86 77.0308 -1556.79 85.6996C-1559 90.5915 -1563.22 95 -1568.59 95H-1569C-1574.52 95 -1579 90.5228 -1579 85V10Z" fill="#7027E2"/>
</g>
<defs>
<clipPath id="clip0_4022_137">
<rect width="105" height="95" fill="white"/>
</clipPath>
</defs>
</svg>
