<svg width="73" height="95" viewBox="0 0 73 95" fill="none" xmlns="http://www.w3.org/2000/svg">
<g clip-path="url(#clip0_4022_137)">
<path fill-rule="evenodd" clip-rule="evenodd" d="M-506 10C-506 4.47715 -501.523 0 -496 0H1404C1409.52 0 1414 4.47716 1414 10V66.4667C1414 69.0679 1411.6 71 1409 71V71H1150.52C1145.46 71 1141.3 67.1673 1139.81 62.3261C1133.54 41.8723 1114.51 27 1092 27H65C42.492 27 23.4576 41.8724 17.1878 62.3261C15.7038 67.1673 11.5445 71 6.48097 71H-461C-471.135 71 -479.861 77.0308 -483.786 85.6996C-486.001 90.5915 -490.225 95 -495.595 95H-496C-501.523 95 -506 90.5228 -506 85V10Z" fill="#7027E2"/>
</g>
<defs>
<clipPath id="clip0_4022_137">
<rect width="73" height="95" fill="white"/>
</clipPath>
</defs>
</svg>
